<svg xmlns="http://www.w3.org/2000/svg" xmlns:xlink="http://www.w3.org/1999/xlink" version="1.1" x="0px" y="0px" viewBox="0 0 67 83.75" style="enable-background:new 0 0 67 67;" xml:space="preserve"><g><path fill="#0368ff" d="M58.6,27.6c0-11.4-7.7-21.1-18.1-24.1l-0.8,4.7c8.3,2.6,14.3,10.3,14.3,19.5c0,11.3-9.1,20.4-20.4,20.4   c-11.3,0-20.4-9.2-20.4-20.4c0-9.1,6-16.9,14.3-19.5l-0.8-4.7C16,6.5,8.4,16.2,8.4,27.6c0,11.4,7.5,21,17.9,24.1v7.8h-6.1   c-0.7,0-1.2,0.5-1.2,1.2v3.5c0,0.7,0.5,1.2,1.2,1.2h26.6c0.7,0,1.2-0.5,1.2-1.2v-3.5c0-0.7-0.5-1.2-1.2-1.2h-6.1v-7.8   C51.1,48.6,58.6,39,58.6,27.6z"/><path fill="#0368ff" d="M38.7,2.4l-1,5.5c-0.1,0.4-0.4,0.6-0.8,0.6h-1.6l-1.5,6.2c-0.1,0.4-0.6,0.4-0.7,0l-1.5-6.2h-1.6c-0.4,0-0.7-0.3-0.8-0.6   l-1-5.5c-0.1-0.5,0.3-0.9,0.8-0.9h8.8C38.4,1.5,38.7,1.9,38.7,2.4z"/><path fill="#0368ff" d="M32.5,16.8v5c-0.9,0.2-1.7,0.5-2.4,1l-8.9-8.9c2-1.8,4.5-3.2,7.1-4c0.5,0.4,1.1,0.6,1.7,0.6l1.1,4.7   C31.4,16,31.9,16.5,32.5,16.8z"/><path fill="#0368ff" d="M51.9,26.7H39.3c-0.1-0.9-0.5-1.7-1-2.4l8.9-8.9C49.9,18.4,51.7,22.3,51.9,26.7z"/><path fill="#0368ff" d="M28.7,24.2c-0.5,0.7-0.9,1.5-1,2.4H15.1c0.2-4.3,2-8.3,4.7-11.3L28.7,24.2z"/><path fill="#0368ff" d="M45.8,13.9l-8.9,8.9c-0.7-0.5-1.5-0.8-2.4-1v-5c0.6-0.3,1.1-0.9,1.3-1.6l1.1-4.7c0.7,0,1.3-0.2,1.7-0.6   C41.3,10.8,43.8,12.1,45.8,13.9z"/><path fill="#0368ff" d="M32.5,33.5V46c-4.3-0.2-8.3-2-11.3-4.7l8.9-8.9C30.8,33,31.6,33.3,32.5,33.5z"/><path fill="#0368ff" d="M51.9,28.7c-0.2,4.3-2,8.3-4.7,11.3l-8.9-8.9c0.5-0.7,0.9-1.5,1-2.4H51.9z"/><path fill="#0368ff" d="M28.7,31.1l-8.9,8.9c-2.7-3-4.4-7-4.7-11.3h12.5C27.8,29.5,28.2,30.4,28.7,31.1z"/><path fill="#0368ff" d="M45.8,41.4c-3,2.7-7,4.4-11.3,4.7V33.5c0.9-0.2,1.7-0.5,2.4-1L45.8,41.4z"/><circle cx="33.5" cy="27.6" r="3.9"/></g><text x="0" y="82" fill="#000000" font-size="5px" font-weight="bold" font-family="'Helvetica Neue', Helvetica, Arial-Unicode, Arial, Sans-serif">Created by Vectors Point</text><text x="0" y="87" fill="#000000" font-size="5px" font-weight="bold" font-family="'Helvetica Neue', Helvetica, Arial-Unicode, Arial, Sans-serif">from the Noun Project</text></svg>